HIERARCHY
ROOT Hips
{
    OFFSET   0.000000   0.000000   0.000000
    CHANNELS 6 Xposition Yposition Zposition Zrotation Xrotation Yrotation
    JOINT Chest
    {
        OFFSET   0.000000   8.007230   0.000000
        CHANNELS 3 Zrotation Xrotation Yrotation
        JOINT Chest2
        {
            OFFSET   0.000000  22.077100   0.000000
            CHANNELS 3 Zrotation Xrotation Yrotation
            JOINT Neck
            {
                OFFSET   0.000000  23.254800  -0.000021
                CHANNELS 3 Zrotation Xrotation Yrotation
                JOINT Head
                {
                    OFFSET   0.000000  14.370000   1.956610
                    CHANNELS 3 Zrotation Xrotation Yrotation
                    End Site
                    {
                        OFFSET   0.000000  19.566000   0.000000
                    }
                }
            }
            JOINT LeftCollar
            {
                OFFSET   3.911900  19.017000  -0.467063
                CHANNELS 3 Zrotation Xrotation Yrotation
                JOINT LeftShoulder
                {
                    OFFSET  10.383700   0.000000   0.000000
                    CHANNELS 3 Zrotation Xrotation Yrotation
                    JOINT LeftElbow
                    {
                        OFFSET  26.662100   0.001529   0.000325
                        CHANNELS 3 Zrotation Xrotation Yrotation
                        JOINT LeftWrist
                        {
                            OFFSET  28.869000  -0.000011  -0.000096
                            CHANNELS 3 Zrotation Xrotation Yrotation
                            JOINT LeftFinger0
                            {
                                OFFSET   2.044650  -2.323460   3.252850
                                CHANNELS 3 Zrotation Xrotation Yrotation
                                JOINT LeftFinger01
                                {
                                    OFFSET   3.088130   0.000000   0.000000
                                    CHANNELS 3 Zrotation Xrotation Yrotation
                                    JOINT LeftFinger02
                                    {
                                        OFFSET   2.639460   0.000000   0.000000
                                        CHANNELS 3 Zrotation Xrotation Yrotation
                                        End Site
                                        {
                                            OFFSET   2.582190   0.000000   0.000000
                                        }
                                    }
                                }
                            }
                            JOINT LeftFinger1
                            {
                                OFFSET   8.364480   0.000000   3.252850
                                CHANNELS 3 Zrotation Xrotation Yrotation
                                JOINT LeftFinger11
                                {
                                    OFFSET   4.646930   0.000000   0.000000
                                    CHANNELS 3 Zrotation Xrotation Yrotation
                                    JOINT LeftFinger12
                                    {
                                        OFFSET   2.323460   0.000000   0.000000
                                        CHANNELS 3 Zrotation Xrotation Yrotation
                                        End Site
                                        {
                                            OFFSET   2.273050   0.000000   0.000000
                                        }
                                    }
                                }
                            }
                            JOINT LeftFinger2
                            {
                                OFFSET   8.364480   0.000016   1.078090
                                CHANNELS 3 Zrotation Xrotation Yrotation
                                JOINT LeftFinger21
                                {
                                    OFFSET   5.111620   0.000000   0.000000
                                    CHANNELS 3 Zrotation Xrotation Yrotation
                                    JOINT LeftFinger22
                                    {
                                        OFFSET   2.788160   0.000017   0.000000
                                        CHANNELS 3 Zrotation Xrotation Yrotation
                                        End Site
                                        {
                                            OFFSET   2.727660   0.000000   0.000000
                                        }
                                    }
                                }
                            }
                            JOINT LeftFinger3
                            {
                                OFFSET   7.899780   0.000015  -1.078090
                                CHANNELS 3 Zrotation Xrotation Yrotation
                                JOINT LeftFinger31
                                {
                                    OFFSET   4.646920   0.000000   0.000000
                                    CHANNELS 3 Zrotation Xrotation Yrotation
                                    JOINT LeftFinger32
                                    {
                                        OFFSET   2.323470   0.000000   0.000000
                                        CHANNELS 3 Zrotation Xrotation Yrotation
                                        End Site
                                        {
                                            OFFSET   2.273050   0.000000   0.000000
                                        }
                                    }
                                }
                            }
                            JOINT LeftFinger4
                            {
                                OFFSET   7.435090   0.000000  -3.252850
                                CHANNELS 3 Zrotation Xrotation Yrotation
                                JOINT LeftFinger41
                                {
                                    OFFSET   3.717550   0.000000   0.000000
                                    CHANNELS 3 Zrotation Xrotation Yrotation
                                    JOINT LeftFinger42
                                    {
                                        OFFSET   1.858760   0.000000   0.000000
                                        CHANNELS 3 Zrotation Xrotation Yrotation
                                        End Site
                                        {
                                            OFFSET   1.818440   0.000000   0.000000
                                        }
                                    }
                                }
                            }
                        }
                    }
                }
            }
            JOINT RightCollar
            {
                OFFSET  -3.911900  19.017000  -0.467062
                CHANNELS 3 Zrotation Xrotation Yrotation
                JOINT RightShoulder
                {
                    OFFSET -10.383700   0.000015   0.000000
                    CHANNELS 3 Zrotation Xrotation Yrotation
                    JOINT RightElbow
                    {
                        OFFSET -26.662100   0.001341   0.000385
                        CHANNELS 3 Zrotation Xrotation Yrotation
                        JOINT RightWrist
                        {
                            OFFSET -28.869000   0.000025  -0.000080
                            CHANNELS 3 Zrotation Xrotation Yrotation
                            JOINT RightFinger0
                            {
                                OFFSET  -2.044650  -2.323490   3.252850
                                CHANNELS 3 Zrotation Xrotation Yrotation
                                JOINT RightFinger01
                                {
                                    OFFSET  -3.088130   0.000000   0.000000
                                    CHANNELS 3 Zrotation Xrotation Yrotation
                                    JOINT RightFinger02
                                    {
                                        OFFSET  -2.639460   0.000000   0.000000
                                        CHANNELS 3 Zrotation Xrotation Yrotation
                                        End Site
                                        {
                                            OFFSET  -2.582190   0.000000   0.000000
                                        }
                                    }
                                }
                            }
                            JOINT RightFinger1
                            {
                                OFFSET  -8.364480   0.000000   3.252850
                                CHANNELS 3 Zrotation Xrotation Yrotation
                                JOINT RightFinger11
                                {
                                    OFFSET  -4.646930   0.000000   0.000000
                                    CHANNELS 3 Zrotation Xrotation Yrotation
                                    JOINT RightFinger12
                                    {
                                        OFFSET  -2.323470   0.000000   0.000000
                                        CHANNELS 3 Zrotation Xrotation Yrotation
                                        End Site
                                        {
                                            OFFSET  -2.273050   0.000000   0.000000
                                        }
                                    }
                                }
                            }
                            JOINT RightFinger2
                            {
                                OFFSET  -8.364480   0.000000   1.078090
                                CHANNELS 3 Zrotation Xrotation Yrotation
                                JOINT RightFinger21
                                {
                                    OFFSET  -5.111610   0.000000   0.000000
                                    CHANNELS 3 Zrotation Xrotation Yrotation
                                    JOINT RightFinger22
                                    {
                                        OFFSET  -2.788160   0.000000   0.000000
                                        CHANNELS 3 Zrotation Xrotation Yrotation
                                        End Site
                                        {
                                            OFFSET  -2.727660   0.000000   0.000000
                                        }
                                    }
                                }
                            }
                            JOINT RightFinger3
                            {
                                OFFSET  -7.899780   0.000000  -1.078090
                                CHANNELS 3 Zrotation Xrotation Yrotation
                                JOINT RightFinger31
                                {
                                    OFFSET  -4.646920   0.000000   0.000000
                                    CHANNELS 3 Zrotation Xrotation Yrotation
                                    JOINT RightFinger32
                                    {
                                        OFFSET  -2.323470   0.000000   0.000000
                                        CHANNELS 3 Zrotation Xrotation Yrotation
                                        End Site
                                        {
                                            OFFSET  -2.273050   0.000000   0.000000
                                        }
                                    }
                                }
                            }
                            JOINT RightFinger4
                            {
                                OFFSET  -7.435090   0.000000  -3.252850
                                CHANNELS 3 Zrotation Xrotation Yrotation
                                JOINT RightFinger41
                                {
                                    OFFSET  -3.717550   0.000000   0.000000
                                    CHANNELS 3 Zrotation Xrotation Yrotation
                                    JOINT RightFinger42
                                    {
                                        OFFSET  -1.858770   0.000000   0.000000
                                        CHANNELS 3 Zrotation Xrotation Yrotation
                                        End Site
                                        {
                                            OFFSET  -1.818440   0.000000   0.000000
                                        }
                                    }
                                }
                            }
                        }
                    }
                }
            }
        }
    }
    JOINT LeftHip
    {
        OFFSET   9.783010   0.000000   0.000000
        CHANNELS 3 Zrotation Xrotation Yrotation
        JOINT LeftKnee
        {
            OFFSET   0.000070 -41.789100   0.000028
            CHANNELS 3 Zrotation Xrotation Yrotation
            JOINT LeftAnkle
            {
                OFFSET   0.000087 -41.133200  -0.000100
                CHANNELS 3 Zrotation Xrotation Yrotation
                JOINT LeftToe
                {
                    OFFSET   0.000000  -6.358960  14.674500
                    CHANNELS 3 Zrotation Xrotation Yrotation
                    End Site
                    {
                        OFFSET   0.000000   0.000000   3.913200
                    }
                }
            }
        }
    }
    JOINT RightHip
    {
        OFFSET  -9.783020   0.000000   0.000000
        CHANNELS 3 Zrotation Xrotation Yrotation
        JOINT RightKnee
        {
            OFFSET   0.000044 -41.789100  -0.000870
            CHANNELS 3 Zrotation Xrotation Yrotation
            JOINT RightAnkle
            {
                OFFSET  -0.000090 -41.133200  -0.000245
                CHANNELS 3 Zrotation Xrotation Yrotation
                JOINT RightToe
                {
                    OFFSET   0.000000  -6.358960  14.674500
                    CHANNELS 3 Zrotation Xrotation Yrotation
                    End Site
                    {
                        OFFSET   0.000000   0.000000   3.913200
                    }
                }
            }
        }
    }
}
MOTION
Frames: 4
Frame Time:   0.016667
 -1.785940  89.476500   0.771222  -1.480240  -8.132270  -1.548910  -0.989300   6.000610  -0.463291  -1.945610  12.007500  -0.828650   3.940720   0.099713  -0.006779   6.473570   0.199890   7.589140  -1.890020   3.966750   7.587920 -75.779900   9.585320  -5.450900  -0.318815   4.552150 -18.482300   6.560430  -8.495880  -2.967010  40.957700  30.072600 -50.795400 -27.732300   0.002553   0.002789  -8.866110   0.000648   0.001805 -29.011500  -0.513301   0.926625 -23.740300   0.003728  -0.007025 -16.618200   0.002781  -0.008424 -29.242400  -0.643843   6.746840 -43.643900  -0.001553  -0.010125 -29.066800  -0.000906   0.003505 -27.715500  -3.759170   7.114910 -31.679100   0.000455  -0.007457 -21.098200   0.009603  -0.004391 -32.376400  -4.416940   6.925590 -48.966000  -0.003452  -0.008683 -32.611300  -0.002327  -0.000621  -0.663002   0.629534   2.247710  64.937800 -33.851400  50.611500   2.610800 -20.305700  98.898000  71.902200 -69.291800  76.729100 -47.422400  33.706800  70.328700 -18.901400  -0.003846  -0.001262 -14.476100  -0.002757   0.003021  17.539200   1.712960   5.319380  14.414400   0.013474   0.006544  10.090100   0.009633  -0.000738  75.815200  -0.002336   0.003461  75.815300   0.001212   0.001639  56.861500   0.005659  -0.000399  77.171500  -4.877360  -1.107550  77.218700  -0.001331   0.007040  57.914000   0.001423  -0.000645  79.541600  -9.839550  -1.804820 110.000000  -0.004552  -0.004984  79.692500   0.000732  -0.007972   4.355380  10.838900  -0.409806   0.022366   1.418570  15.316500  -3.837330  -3.812650  -0.852840   0.000000   0.000000   0.000000  -0.069944  11.041600  -7.333870   1.131060   0.826312  -8.722720  -1.174100  -3.185740   3.838750   0.000000   0.000000  -0.000000
 -1.752060  89.475300   0.771766  -1.458850  -8.139180  -1.465410  -1.010940   6.000090  -0.413712  -1.994580  12.006500  -0.726258   3.781410  -0.145361   0.009665   6.212370  -0.290816   7.441490  -1.906650   3.849660   7.483750 -75.765800   9.399260  -5.387310  -0.242747   4.664380 -18.517000   6.701700  -8.676220  -2.908930  40.938600  30.061200 -50.688400 -27.768400   0.002574   0.002828  -8.884200   0.000691   0.001815 -29.053700  -0.566036   1.019120 -23.775400   0.003744  -0.007114 -16.642800   0.002837  -0.008545 -29.242200  -0.645047   6.746900 -43.643700  -0.001549  -0.010242 -29.066700  -0.000922   0.003557 -27.720800  -3.807750   7.202970 -31.747300   0.000495  -0.007562 -21.143700   0.009694  -0.004416 -32.430700  -4.458350   6.975310 -49.053900  -0.003452  -0.008898 -32.669900  -0.002333  -0.000633  -0.549047   0.576656   2.229420  63.825100 -33.529900  50.036600   2.153520 -20.468400  98.184400  68.712000 -69.108300  73.728400 -47.125700  33.740000  70.673200 -17.697400  -0.004568  -0.001307 -13.848700  -0.002967   0.003013  18.599800   1.707370   5.016040  15.279500   0.010191   0.007042  10.695600   0.007197  -0.001042  75.599400  -0.002555   0.003724  75.599500   0.001156   0.001622  56.699600   0.006355  -0.000365  76.995200  -4.873790  -1.123080  77.043000  -0.001455   0.006216  57.782300   0.001287  -0.000602  79.345100  -9.832160  -1.839200 110.000000  -0.004470  -0.004924  79.424000   0.000869  -0.008094   4.330570  10.845800  -0.383815  -0.005049   1.391930  15.217600  -3.800100  -3.798490  -0.858199  -0.000000   0.000000  -0.000000  -0.102932  11.059300  -7.289390   1.117130   0.828195  -8.783610  -1.140650  -3.189890   3.774520  -0.000000   0.000000   0.000000
 -1.709790  89.474200   0.773128  -1.445140  -8.167240  -1.393410  -1.020980   6.015250  -0.364680  -2.016680  12.036200  -0.625856   3.622170  -0.370259   0.023527   5.951520  -0.741963   7.295700  -1.950010   3.725740   7.396190 -75.732000   9.320010  -5.390230  -0.208102   4.601410 -18.459100   6.767960  -8.775180  -2.849020  40.944300  30.110600 -50.826600 -27.812500   0.002586   0.002883  -8.906260   0.000721   0.001841 -29.100200  -0.623096   1.120720 -23.814200   0.003763  -0.007203 -16.670000   0.002892  -0.008668 -29.299100  -0.646016   6.730550 -43.729900  -0.001546  -0.010357 -29.124100  -0.000938   0.003612 -27.723600  -3.863170   7.307650 -31.811600   0.000534  -0.007668 -21.186500   0.009780  -0.004438 -32.452600  -4.502900   7.037120 -49.094900  -0.003454  -0.009109 -32.697300  -0.002339  -0.000645  -0.458102   0.522296   2.232300  62.701100 -33.143900  49.518300   1.688120 -20.788700  97.476300  66.954800 -68.886000  72.066900 -47.254400  33.924600  71.002000 -15.720400  -0.027040  -0.006918 -12.858700  -0.014286   0.002998  19.847900   1.770510   4.841840  16.297300   0.018410   0.007541  11.408100   0.012540  -0.001306  75.438900  -0.002792   0.003960  75.438900   0.001081   0.001632  56.579200   0.007043  -0.000283  76.865300  -4.873820  -1.134840  76.913500  -0.001592   0.005403  57.685200   0.001137  -0.000506  79.222200  -9.828480  -1.860840 110.000000  -0.004387  -0.004865  79.298300   0.001005  -0.008223   4.306460  10.872300  -0.364656  -0.031877   1.370950  15.126000  -3.759780  -3.791640  -0.854619   0.000000   0.000000  -0.000000  -0.129471  11.075900  -7.251630   1.092720   0.841009  -8.833610  -1.103160  -3.194130   3.717240  -0.000000   0.000000  -0.000000
 -1.661410  89.472400   0.776254  -1.435610  -8.214490  -1.328110  -1.026300   6.043240  -0.319301  -2.035660  12.091200  -0.533487   3.463240  -0.577428   0.035054   5.691260  -1.158320   7.161430  -2.008420   3.601850   7.324290 -75.691500   9.301990  -5.412070  -0.189914   4.469390 -18.324700   6.806490  -8.829920  -2.772970  40.947800  30.206100 -50.998400 -27.878500   0.002596   0.002938  -8.939240   0.000748   0.001860 -29.151700  -0.668282   1.197960 -23.857100   0.003783  -0.007294 -16.700000   0.002948  -0.008790 -29.384400  -0.646408   6.706110 -43.858700  -0.001543  -0.010470 -29.209900  -0.000953   0.003668 -27.730200  -3.905610   7.382630 -31.885100   0.000574  -0.007774 -21.235500   0.009864  -0.004459 -32.466300  -4.530250   7.076620 -49.119700  -0.003456  -0.009315 -32.713800  -0.002344  -0.000659  -0.378604   0.471964   2.252630  61.652200 -32.726400  49.067400   1.249170 -21.179000  96.826000  65.345500 -68.607200  70.452300 -47.510300  34.332000  71.621100 -13.223500  -0.053175  -0.012487 -11.611700  -0.027262   0.002984  21.297700   1.833830   4.604930  17.478500   0.030466   0.008042  12.235000   0.020491  -0.001515  75.370000  -0.003033   0.004174  75.370000   0.000986   0.001666  56.527500   0.007727  -0.000151  76.810600  -4.874110  -1.139940  76.859000  -0.001755   0.004618  57.644300   0.000997  -0.000354  79.179100  -9.827510  -1.868530 110.000000  -0.004304  -0.004805  79.260400   0.001139  -0.008352   4.278300  10.914100  -0.355323  -0.053735   1.357350  15.045500  -3.715910  -3.789710  -0.844774   0.000000   0.000000  -0.000000  -0.157822  11.137700  -7.215350   1.076950   0.852093  -8.881720  -1.064040  -3.199540   3.667990  -0.000000   0.000000  -0.000000
